<?xml version="1.0" encoding="iso-8859-1"?>
<!-- Generator: Adobe Illustrator 19.0.0, SVG Export Plug-In . SVG Version: 6.00 Build 0)  -->
<svg xmlns="http://www.w3.org/2000/svg" xmlns:xlink="http://www.w3.org/1999/xlink" version="1.1" id="Capa_1" x="0px" y="0px" viewBox="0 0 479.916 479.916" style="enable-background:new 0 0 479.916 479.916;" xml:space="preserve" width="512px" height="512px">
<g>
	<g>
		<path d="M396.783,147.78c-15.504-68.917-83.941-112.216-152.858-96.712c-34.888,7.849-64.896,29.944-82.75,60.928h-1.192    c-50.188,0.122-93.157,36.006-102.224,85.368c-45.636,16.715-69.082,67.26-52.367,112.897    c12.696,34.663,45.676,57.718,82.591,57.735h8v-16h-8c-39.765-0.004-71.997-32.242-71.993-72.007    c0.003-31.748,20.8-59.746,51.193-68.921c3.003-0.915,5.193-3.503,5.6-6.616c5.844-43.713,43.099-76.377,87.2-76.456    c1.248,0,2.48,0.088,3.712,0.168l1.6,0.104c3.139,0.207,6.102-1.468,7.544-4.264c28.672-54.759,96.307-75.907,151.066-47.235    c30.526,15.984,51.988,45.138,58.182,79.035c0.575,3.189,3.017,5.716,6.184,6.4c51.8,11.305,84.627,62.462,73.322,114.262    c-9.609,44.027-48.547,75.444-93.61,75.53v16c61.856-0.037,111.97-50.211,111.933-112.067    C479.886,205.215,445.783,160.85,396.783,147.78z" fill="#e8b55a"/>
	</g>
</g>
<g>
	<g>
		<path d="M335.983,255.996h-32v-16h-16v16h-48v-16h-16v16h-48v-16h-16v16h-32c-8.837,0-16,7.163-16,16v144c0,8.837,7.163,16,16,16    h208c8.837,0,16-7.163,16-16v-144C351.983,263.159,344.82,255.996,335.983,255.996z M335.983,415.996h-208v-104h208V415.996z     M335.983,295.996h-208v-24h32v16h16v-16h48v16h16v-16h48v16h16v-16h32V295.996z" fill="#e8b55a"/>
	</g>
</g>
<g>
	<g>
		<rect x="207.983" y="335.996" width="16" height="16" fill="#e8b55a"/>
	</g>
</g>
<g>
	<g>
		<rect x="239.983" y="335.996" width="16" height="16" fill="#e8b55a"/>
	</g>
</g>
<g>
	<g>
		<rect x="271.983" y="335.996" width="16" height="16" fill="#e8b55a"/>
	</g>
</g>
<g>
	<g>
		<rect x="303.983" y="335.996" width="16" height="16" fill="#e8b55a"/>
	</g>
</g>
<g>
	<g>
		<rect x="175.983" y="335.996" width="16" height="16" fill="#e8b55a"/>
	</g>
</g>
<g>
	<g>
		<rect x="143.983" y="335.996" width="16" height="16" fill="#e8b55a"/>
	</g>
</g>
<g>
	<g>
		<rect x="207.983" y="375.996" width="16" height="16" fill="#e8b55a"/>
	</g>
</g>
<g>
	<g>
		<rect x="239.983" y="375.996" width="16" height="16" fill="#e8b55a"/>
	</g>
</g>
<g>
	<g>
		<rect x="271.983" y="375.996" width="16" height="16" fill="#e8b55a"/>
	</g>
</g>
<g>
	<g>
		<rect x="303.983" y="375.996" width="16" height="16" fill="#e8b55a"/>
	</g>
</g>
<g>
	<g>
		<rect x="175.983" y="375.996" width="16" height="16" fill="#e8b55a"/>
	</g>
</g>
<g>
	<g>
		<rect x="143.983" y="375.996" width="16" height="16" fill="#e8b55a"/>
	</g>
</g>
<g>
</g>
<g>
</g>
<g>
</g>
<g>
</g>
<g>
</g>
<g>
</g>
<g>
</g>
<g>
</g>
<g>
</g>
<g>
</g>
<g>
</g>
<g>
</g>
<g>
</g>
<g>
</g>
<g>
</g>
</svg>
